<svg width="144" height="143" viewBox="0 0 144 143" fill="none" xmlns="http://www.w3.org/2000/svg">
<path d="M0.900024 2H34.1C44.9 2 53 4.9 58.4 10.7C63.8 16.5 66.5 25 66.5 36.2V106.1C66.5 117.3 63.8 125.8 58.4 131.6C53 137.4 44.9 140.3 34.1 140.3H0.900024V2ZM33.7 120.6C37.3 120.6 40 119.5 41.9 117.4C43.8 115.3 44.8 111.9 44.8 107.1V35.2C44.8 30.5 43.8 27 41.9 24.9C40 22.8 37.3 21.7 33.7 21.7H22.6V120.5L33.7 120.6Z" fill="#5BC4BD"/>
<path d="M87.9 133.4C82.4 127.5 79.7 119.1 79.7 108.3V34C79.7 23.2 82.4 14.8 87.9 8.9C93.4 3 101.3 0 111.7 0C122.1 0 130 3 135.5 8.9C141 14.8 143.7 23.2 143.7 34V48.6H123.2V32.6C123.2 24 119.6 19.8 112.3 19.8C105 19.8 101.4 24.1 101.4 32.6V109.8C101.4 118.2 105 122.4 112.3 122.4C119.6 122.4 123.2 118.2 123.2 109.8V88.7H143.7V108.3C143.7 119.1 141 127.5 135.5 133.4C130 139.3 122.1 142.3 111.7 142.3C101.3 142.3 93.4 139.3 87.9 133.4Z" fill="#5BC4BD"/>
</svg>
