<svg width="349" height="349" viewBox="0 0 349 349" fill="none" xmlns="http://www.w3.org/2000/svg">
<g clip-path="url(#clip0)">
<path d="M348.23 0H0V348.23H348.23V0Z" fill="#5BC4BD"/>
<path d="M103.91 100.04H137.1C147.9 100.04 155.99 102.94 161.4 108.73C166.8 114.53 169.5 123.02 169.5 134.21V204.14C169.5 215.33 166.8 223.83 161.4 229.62C156 235.42 147.9 238.31 137.1 238.31H103.91V100.04ZM136.7 218.56C140.26 218.56 142.99 217.51 144.9 215.4C146.81 213.3 147.76 209.87 147.76 205.13V133.23C147.76 128.49 146.8 125.07 144.9 122.96C142.99 120.86 140.26 119.8 136.7 119.8H125.64V218.57H136.7V218.56Z" fill="white"/>
<path d="M190.92 231.4C185.45 225.47 182.72 217.11 182.72 206.31V132.04C182.72 121.24 185.45 112.88 190.92 106.95C196.38 101.02 204.32 98.0601 214.72 98.0601C225.12 98.0601 233.06 101.02 238.52 106.95C243.98 112.88 246.72 121.24 246.72 132.04V146.66H226.18V130.66C226.18 122.1 222.56 117.82 215.32 117.82C208.08 117.82 204.46 122.1 204.46 130.66V207.89C204.46 216.32 208.08 220.53 215.32 220.53C222.56 220.53 226.18 216.32 226.18 207.89V186.75H246.72V206.31C246.72 217.11 243.99 225.47 238.52 231.4C233.05 237.33 225.12 240.29 214.72 240.29C204.32 240.29 196.38 237.33 190.92 231.4Z" fill="white"/>
</g>
<defs>
<clipPath id="clip0">
<rect width="348.23" height="348.23" rx="20" fill="white"/>
</clipPath>
</defs>
</svg>
